<svg width="64" height="64" viewBox="0 0 64 64" xmlns="http://www.w3.org/2000/svg">
<defs><linearGradient id="g" gradientUnits="userSpaceOnUse" x1="0" y1="0" x2="64" y2="64">
<stop offset="0%" stop-color="#7b2ff7"></stop><stop offset="50%" stop-color="#ee2a7b"></stop><stop offset="100%" stop-color="#ff8a3d"></stop>
</linearGradient></defs>
<g fill="none" stroke="url(#g)" stroke-width="3.5" stroke-linecap="round" stroke-linejoin="round">
<line x1="10" y1="14" x2="54" y2="14"></line>
<line x1="10" y1="50" x2="54" y2="50"></line>
<line x1="10" y1="14" x2="10" y2="50"></line>
<line x1="54" y1="14" x2="54" y2="50"></line>
<line x1="24" y1="14" x2="24" y2="24"></line>
<path d="M24 24 L20 27 L28 31 L20 35 L28 39 L24 42"></path>
<line x1="24" y1="42" x2="24" y2="50"></line>
<line x1="40" y1="14" x2="40" y2="24"></line>
<path d="M40 24 L36 27 L44 31 L36 35 L44 39 L40 42"></path>
<line x1="40" y1="42" x2="40" y2="50"></line>
</g>
</svg>